<svg width="98" height="95" viewBox="0 0 98 95" fill="none" xmlns="http://www.w3.org/2000/svg">
<path d="M94 45C94 69.8528 73.8528 90 49 90C24.1472 90 4 69.8528 4 45C4 20.1472 24.1472 0 49 0C73.8528 0 94 20.1472 94 45Z" fill="#FF0000"/>
<path d="M80 44.5C80 61.897 65.897 76 48.5 76C31.103 76 17 61.897 17 44.5C17 27.103 31.103 13 48.5 13C65.897 13 80 27.103 80 44.5Z" fill="#D9D9D9"/>
<path d="M79 44.5C79 61.3447 65.3447 75 48.5 75C31.6553 75 18 61.3447 18 44.5C18 27.6553 31.6553 14 48.5 14C65.3447 14 79 27.6553 79 44.5Z" fill="#FF0000"/>
<path d="M29 65L28 65L28 29L29 29L29 65Z" fill="black"/>
<path d="M49.2965 72.6141L48.5 72.9911L27.6458 28.9328L28.4422 28.5558L49.2965 72.6141Z" fill="black"/>
<path d="M69 65L70 65L70 29L69 29L69 65Z" fill="black"/>
<path d="M48.5847 72.6141L49.3811 72.9911L70.2354 28.9328L69.4389 28.5558L48.5847 72.6141Z" fill="black"/>
<line x1="28.9596" y1="25.497" x2="48.9712" y2="67.7747" stroke="black"/>
<line y1="-0.5" x2="46.7746" y2="-0.5" transform="matrix(-0.427831 0.903859 0.903859 0.427831 69.3928 25.7018)" stroke="black"/>
<path d="M8.55839 56.1798C8.67367 55.9995 8.80989 55.8328 8.96705 55.6798C9.1336 55.5234 9.33603 55.3487 9.57434 55.1555C9.61449 55.1196 9.73492 55.0119 9.93564 54.8325C10.1398 54.6624 10.3059 54.4902 10.434 54.3158C10.134 53.7546 9.91553 53.2861 9.77873 52.9102C9.70348 52.7035 9.62439 52.4715 9.54144 52.2144C9.47131 51.9632 9.41401 51.7766 9.36955 51.6544C9.23612 51.1709 9.11811 50.7882 9.0155 50.5063C8.82411 50.4482 8.62845 50.4077 8.42852 50.3847C8.23202 50.3711 7.94239 50.3647 7.55964 50.3657C7.00943 50.3744 6.60873 50.3553 6.35754 50.3084C6.1858 50.2751 6.05547 50.1363 5.96655 49.892C5.8913 49.6853 5.86347 49.4773 5.88306 49.2679C5.91547 49.0646 6.01155 48.9338 6.17129 48.8757C6.55574 48.8209 6.97437 48.8016 7.42718 48.8177C7.89281 48.8397 8.51565 48.8844 9.2957 48.9517L10.8823 49.0127C11.7845 49.0355 12.5637 49.0712 13.2198 49.1197C13.8794 49.1776 14.6714 49.2777 15.5959 49.4201C15.7292 49.4355 15.8573 49.4952 15.9804 49.5994C16.1128 49.7002 16.2081 49.8305 16.2663 49.9902C16.3313 50.1688 16.3633 50.3008 16.3625 50.3862C16.3745 50.4776 16.3609 50.5571 16.3216 50.6246C16.2917 50.6887 16.214 50.7968 16.0884 50.9489C15.7067 51.4496 15.2937 51.9085 14.8496 52.3256C14.4089 52.7521 13.7883 53.3131 12.988 54.0088L12.3487 54.5767C11.7679 55.0861 11.2815 55.5185 10.8894 55.8741C10.5102 56.2356 10.1754 56.6022 9.88501 56.9739C9.69541 57.2132 9.55363 57.3499 9.45966 57.3841C9.23414 57.4662 9.03464 57.459 8.86118 57.3625C8.70053 57.272 8.58088 57.1187 8.50221 56.9026C8.40303 56.63 8.42175 56.3891 8.55839 56.1798ZM11.441 53.4864C11.7058 53.2198 12.1816 52.8018 12.8683 52.2326C13.608 51.6335 14.1739 51.0977 14.5659 50.6251C14.0498 50.6107 13.3715 50.5597 12.5307 50.4719C12.0036 50.3977 11.2671 50.3625 10.3213 50.3662C10.4651 50.9949 10.6635 51.657 10.9166 52.3524C11.0978 52.8504 11.2727 53.2284 11.441 53.4864Z" fill="black"/>
<path d="M17.4673 58.586C17.2329 58.7213 16.917 58.8929 16.5197 59.1008L15.7246 59.5436C14.9567 59.987 14.3468 60.4146 13.8948 60.8264C13.2607 61.408 12.839 61.9749 12.6296 62.5268C12.4547 63.0266 12.4932 63.4947 12.7452 63.9312C12.9412 64.2706 13.2172 64.5154 13.5733 64.6655C13.9375 64.8109 14.3151 64.8677 14.7063 64.8358C15.3474 64.789 16.0358 64.5532 16.7713 64.1286C17.2159 63.8719 17.7249 63.5403 18.2985 63.1337C18.9494 62.6932 19.4447 62.3749 19.7841 62.1789C19.962 62.0763 20.1358 62.116 20.3056 62.2982C20.4835 62.4757 20.6378 62.6776 20.7685 62.9039C20.8152 62.9847 20.8163 63.108 20.7719 63.2737C20.7275 63.4395 20.6446 63.5574 20.5234 63.6274C20.2809 63.7674 20.0435 63.8882 19.8113 63.99C19.5595 64.1138 19.3851 64.2037 19.2881 64.2597C18.9809 64.4371 18.5619 64.7006 18.0309 65.0502C17.8982 65.1377 17.7371 65.2414 17.5478 65.3615C17.3585 65.4816 17.1385 65.6139 16.888 65.7586C16.3383 66.0759 15.7117 66.2599 15.0081 66.3105C14.3172 66.3645 13.6586 66.2598 13.0322 65.9963C12.414 65.7282 11.9346 65.2991 11.5939 64.709C11.0712 63.8037 10.9539 62.9285 11.2419 62.0833C11.5379 61.2334 12.097 60.4471 12.9192 59.7246C13.392 59.3115 13.9101 58.9208 14.4734 58.5525C15.0414 58.1922 15.8144 57.7297 16.7924 57.1651C16.9217 57.0904 17.078 57.081 17.2611 57.1369C17.449 57.2009 17.5849 57.3057 17.6689 57.4512C17.9629 57.9604 17.8957 58.3387 17.4673 58.586Z" fill="black"/>
<path d="M21.9477 66.5134C22.2552 66.2554 22.5978 66.3516 22.9758 66.802C23.1378 66.9951 23.4396 67.3693 23.8813 67.9247C24.3566 68.5493 24.7233 69.0153 24.9812 69.3227C25.1912 69.5729 25.4605 69.8648 25.7891 70.1983C26.0073 70.4294 26.1435 70.5771 26.1975 70.6415C26.5131 71.0467 26.7206 71.4392 26.8199 71.8188C26.8501 71.9275 26.8612 72.0278 26.8532 72.1199C26.8451 72.2119 26.7839 72.3059 26.6695 72.4019C26.5122 72.5339 26.3344 72.5978 26.136 72.5937C25.9447 72.5836 25.7891 72.5071 25.6691 72.3641C25.5371 72.2068 25.3666 71.96 25.1575 71.6237C24.9856 71.3172 24.8157 71.0638 24.6477 70.8636C24.4857 70.6706 24.3591 70.527 24.268 70.4329C24.0141 70.6094 23.4402 71.0727 22.5465 71.8226C21.4812 72.7165 20.4286 73.6546 19.3887 74.6368L19.0956 74.9192C18.8025 75.1652 18.515 75.1202 18.233 74.7841C18.011 74.5196 17.9218 74.2899 17.9653 74.0949C18.0161 73.894 18.1701 73.6855 18.4275 73.4695C18.9351 73.0436 19.5559 72.4984 20.2898 71.8338C20.8949 71.2773 21.3298 70.888 21.5943 70.666C21.7731 70.5161 22.338 70.0786 23.2892 69.3535L22.2256 68.1078C21.8896 67.7074 21.6914 67.3985 21.6309 67.1812C21.5776 66.958 21.6832 66.7353 21.9477 66.5134Z" fill="black"/>
<path d="M58.205 77.46C58.875 77.46 59.485 77.545 60.035 77.715C60.585 77.875 61.035 78.115 61.385 78.435C62.015 79.005 62.455 79.63 62.705 80.31C62.965 80.98 63.095 81.84 63.095 82.89C63.095 83.11 63.065 83.31 63.005 83.49C62.955 83.67 62.87 83.9 62.75 84.18C62.6 84.49 62.51 84.735 62.48 84.915C62.28 85.265 61.95 85.6 61.49 85.92C61.04 86.24 60.55 86.5 60.02 86.7C59.49 86.9 59.025 87 58.625 87C56.695 87 55.32 86.34 54.5 85.02C54.27 84.65 54.09 84.265 53.96 83.865C53.84 83.465 53.78 83.075 53.78 82.695C53.78 81.675 53.96 80.79 54.32 80.04C54.69 79.28 55.2 78.69 55.85 78.27C56.24 78.04 56.645 77.85 57.065 77.7C57.495 77.54 57.875 77.46 58.205 77.46ZM55.34 82.74C55.34 83.28 55.46 83.725 55.7 84.075C55.95 84.425 56.33 84.805 56.84 85.215C57.26 85.375 57.545 85.48 57.695 85.53C57.845 85.57 58.015 85.59 58.205 85.59C59.215 85.59 60.02 85.315 60.62 84.765C61.22 84.215 61.52 83.46 61.52 82.5C61.52 81.74 61.435 81.14 61.265 80.7C61.095 80.26 60.79 79.865 60.35 79.515C60.12 79.325 59.825 79.185 59.465 79.095C59.115 79.005 58.735 78.96 58.325 78.96C57.705 78.96 57.17 79.145 56.72 79.515C56.27 79.875 55.925 80.345 55.685 80.925C55.455 81.505 55.34 82.11 55.34 82.74Z" fill="black"/>
<path d="M49.0677 78.8607C49.2071 78.8729 49.3682 78.9823 49.5509 79.189C49.7444 79.3867 49.8355 79.5502 49.8242 79.6797C49.771 80.2874 49.6783 81.1175 49.5461 82.17C49.5134 82.4281 49.476 82.741 49.4338 83.1088C49.3925 83.4665 49.3509 83.8845 49.3091 84.3626C49.1766 85.8769 49.1686 87.0004 49.2852 87.7334C49.2543 87.9716 49.1444 88.1377 48.9555 88.2316C48.7675 88.3155 48.5838 88.3496 48.4045 88.3339C48.006 88.2991 47.7542 88.1365 47.6491 87.8462C47.554 87.5568 47.5291 87.1531 47.5744 86.6351C47.7426 84.7125 47.9172 82.946 48.0983 81.3356C46.8411 82.5105 45.8558 83.5034 45.1424 84.3143C45.1424 84.3143 45.0475 84.3662 44.8578 84.4701C44.6753 84.6047 44.5293 84.6672 44.4197 84.6576C44.1607 84.635 43.9522 84.5515 43.7942 84.4072C43.6362 84.2628 43.4884 84.0592 43.3508 83.7962L42.7224 82.7173C42.2853 81.9764 41.9679 81.4166 41.7701 81.0379C41.69 81.9544 41.6258 83.2036 41.5778 84.7854C41.5682 85.6981 41.5434 86.3835 41.5033 86.8418C41.4824 87.0809 41.4047 87.2798 41.2704 87.4387C41.1369 87.5877 40.9406 87.6508 40.6816 87.6281C40.4226 87.6055 40.2128 87.5369 40.0521 87.4225C39.9015 87.3089 39.8299 87.1521 39.8373 86.952C39.8621 86.7835 39.8915 86.505 39.9255 86.1165C39.9935 85.3395 40.0514 84.3909 40.0992 83.2708L40.1399 82.4613L40.2015 81.4126C40.2186 81.103 40.24 80.7435 40.2658 80.3341C40.2924 79.9149 40.3271 79.4612 40.3698 78.973C40.4221 78.3753 40.772 78.1048 41.4195 78.1614C41.6187 78.1789 41.8136 78.2461 42.0042 78.3632C42.2046 78.4811 42.3464 78.639 42.4295 78.837C42.4787 79.1927 42.722 79.7962 43.1595 80.6475C43.5969 81.4989 44.0288 82.2996 44.455 83.0496C44.9422 82.5301 45.3374 82.143 45.6407 81.8885C46.1616 81.4422 46.5948 81.0234 46.9402 80.632C47.2956 80.2415 47.6833 79.7685 48.1033 79.213C48.2034 79.1013 48.3416 79.013 48.518 78.9481C48.6952 78.8733 48.8784 78.8441 49.0677 78.8607Z" fill="black"/>
<path d="M31.205 74.46C31.875 74.46 32.485 74.545 33.035 74.715C33.585 74.875 34.035 75.115 34.385 75.435C35.015 76.005 35.455 76.63 35.705 77.31C35.965 77.98 36.095 78.84 36.095 79.89C36.095 80.11 36.065 80.31 36.005 80.49C35.955 80.67 35.87 80.9 35.75 81.18C35.6 81.49 35.51 81.735 35.48 81.915C35.28 82.265 34.95 82.6 34.49 82.92C34.04 83.24 33.55 83.5 33.02 83.7C32.49 83.9 32.025 84 31.625 84C29.695 84 28.32 83.34 27.5 82.02C27.27 81.65 27.09 81.265 26.96 80.865C26.84 80.465 26.78 80.075 26.78 79.695C26.78 78.675 26.96 77.79 27.32 77.04C27.69 76.28 28.2 75.69 28.85 75.27C29.24 75.04 29.645 74.85 30.065 74.7C30.495 74.54 30.875 74.46 31.205 74.46ZM28.34 79.74C28.34 80.28 28.46 80.725 28.7 81.075C28.95 81.425 29.33 81.805 29.84 82.215C30.26 82.375 30.545 82.48 30.695 82.53C30.845 82.57 31.015 82.59 31.205 82.59C32.215 82.59 33.02 82.315 33.62 81.765C34.22 81.215 34.52 80.46 34.52 79.5C34.52 78.74 34.435 78.14 34.265 77.7C34.095 77.26 33.79 76.865 33.35 76.515C33.12 76.325 32.825 76.185 32.465 76.095C32.115 76.005 31.735 75.96 31.325 75.96C30.705 75.96 30.17 76.145 29.72 76.515C29.27 76.875 28.925 77.345 28.685 77.925C28.455 78.505 28.34 79.11 28.34 79.74Z" fill="black"/>
<path d="M70.9795 75.8592C71.6567 75.5721 72.2419 75.5056 72.735 75.6597C73.2318 75.8002 73.6177 76.1085 73.8927 76.5848C74.1677 77.0612 74.2501 77.614 74.1401 78.2433C74.0386 78.8677 73.7826 79.4543 73.372 80.0031C73.1846 80.2384 72.9041 80.4927 72.5308 80.766C72.166 81.0343 71.7758 81.2884 71.3602 81.5284C70.6673 81.9284 69.9197 82.2735 69.1172 82.5636C68.9723 82.6126 68.7963 82.6276 68.589 82.6087C68.3905 82.5848 68.2337 82.4732 68.1187 82.274C67.65 81.4823 66.9797 80.3913 66.1078 79.001L65.6823 78.294C65.0076 77.2055 64.4878 76.3452 64.1228 75.713C64.0578 75.6004 64.0478 75.433 64.0927 75.2108C64.1412 74.9749 64.2558 74.7933 64.4363 74.6659C64.5489 74.6009 64.6546 74.5341 64.7536 74.4655C65.6772 73.8052 66.3035 73.3801 66.6326 73.1901C67.2821 72.8151 67.8912 72.55 68.4598 72.3949C69.0321 72.2262 69.5778 72.2113 70.0969 72.3504C70.2982 72.419 70.5002 72.539 70.7032 72.7105C70.9011 72.8734 71.0576 73.0544 71.1726 73.2536C71.4263 73.6729 71.5387 74.1276 71.5099 74.6177C71.4897 75.1028 71.3129 75.5166 70.9795 75.8592ZM67.348 74.2492C67.0536 74.4192 66.7562 74.6141 66.4557 74.8337C66.164 75.0483 65.9248 75.2441 65.7383 75.4211L67.2338 77.8313L67.6939 77.5483C68.4024 77.0354 68.9191 76.6504 69.2442 76.3934C69.4393 76.2115 69.6027 75.9844 69.7342 75.7122C69.8607 75.4313 69.9457 75.1686 69.9893 74.924C70.0365 74.6658 70.0351 74.4934 69.9851 74.4068C69.9101 74.2769 69.8092 74.162 69.6822 74.0621C69.5502 73.9535 69.4364 73.8864 69.3408 73.8608C68.977 73.7707 68.6513 73.7566 68.3638 73.8187C68.0764 73.8807 67.7378 74.0242 67.348 74.2492ZM69.2452 81.2253C69.7219 81.0309 70.1594 80.8187 70.5578 80.5887C71.4325 80.0837 72.056 79.5736 72.4283 79.0584C72.8042 78.5296 72.8047 77.9404 72.4297 77.2909C72.2797 77.0311 71.9598 76.9271 71.4701 76.9789C70.9804 77.0307 70.5104 77.1866 70.0601 77.4466C69.757 77.6216 69.3916 77.8787 68.9639 78.218C68.6215 78.485 68.2778 78.7296 67.9327 78.9519C68.2501 79.4616 68.4487 79.7856 68.5287 79.9242C68.6837 80.1927 68.7969 80.3987 68.8682 80.5423L69.2452 81.2253Z" fill="black"/>
<path d="M74.4416 67.0869C74.9126 67.5213 75.3741 67.9281 75.8261 68.3073C76.2933 68.6994 77.0047 69.2441 77.96 69.9413C78.1043 70.0493 78.3968 70.2686 78.8374 70.5992C79.2703 70.9233 79.6592 71.23 80.0039 71.5192C80.0605 71.4362 80.1165 71.3461 80.1719 71.249C80.2337 71.1442 80.2839 71.0688 80.3225 71.0229C80.4639 70.8544 80.6185 70.7557 80.7863 70.7268C80.9542 70.6979 81.1262 70.7574 81.3024 70.9052C81.4173 71.0016 81.4668 71.1215 81.451 71.2649C81.4351 71.4082 81.3461 71.6077 81.1839 71.8632C81.0205 72.1046 80.7588 72.4398 80.3988 72.8688C80.0003 73.3438 79.6861 73.6871 79.4561 73.8989C79.2262 74.1106 79.0306 74.2271 78.8692 74.2483C78.7001 74.2631 78.5275 74.1966 78.3513 74.0488C78.2211 73.9395 78.1683 73.8234 78.1931 73.7006C78.2178 73.5778 78.2945 73.4398 78.423 73.2865L78.637 73.0549L78.9782 72.695L77.5741 71.6147C76.8001 71.0436 76.1067 70.5009 75.4939 69.9867C75.1645 69.7103 74.7221 69.3195 74.1669 68.8145L73.5542 68.2612C73.351 68.5345 73.1883 68.7439 73.0661 68.8895C72.9247 69.058 72.7977 69.1472 72.685 69.1571C72.5787 69.1593 72.4298 69.08 72.2383 68.9193C72.0238 68.7393 72.008 68.4781 72.191 68.1356C72.3804 67.7854 72.729 67.3077 73.2368 66.7025C73.6289 66.2353 73.9367 65.8996 74.1602 65.6955C74.3901 65.4837 74.5587 65.4228 74.6659 65.5128C74.9264 65.7313 75.0505 65.9334 75.0384 66.119C75.025 66.2906 74.8865 66.5334 74.623 66.8474L74.4416 67.0869Z" fill="black"/>
<path d="M77.396 61.0679C77.491 60.9033 77.6193 60.7811 77.7809 60.7012C77.9475 60.6126 78.1466 60.6179 78.3781 60.7169C79.1223 61.008 79.8439 61.338 80.5431 61.707C81.2386 62.0624 82.015 62.4876 82.8724 62.9826C83.2361 63.1926 83.8811 63.6054 84.8074 64.221C85.0621 63.86 85.2494 63.5755 85.3694 63.3677C85.4544 63.2204 85.6252 62.8745 85.8819 62.3299C86.0136 62.0018 86.1445 61.7252 86.2745 61.5C86.3945 61.2921 86.5261 61.1141 86.6694 60.9659C86.8041 60.8127 86.9672 60.6702 87.1588 60.5383C87.3677 60.4164 87.5804 60.418 87.7969 60.543C87.9701 60.643 88.0935 60.7893 88.1671 60.9819C88.2456 61.1658 88.2424 61.3314 88.1574 61.4786C88.0974 61.5825 87.9851 61.7371 87.8205 61.9422C87.5248 62.3143 87.2695 62.6865 87.0545 63.0589C86.9845 63.1801 86.9132 63.3237 86.8405 63.4896C86.7642 63.6418 86.706 63.7525 86.666 63.8218C86.572 64.0447 86.465 64.26 86.345 64.4679C86.1 64.8922 85.8583 65.2608 85.62 65.5735C85.5027 65.7367 85.3378 65.8724 85.1252 65.9806C84.9039 66.0838 84.6807 66.0704 84.4556 65.9404C84.3257 65.8654 84.0022 65.6556 83.4853 65.311C82.6283 64.7354 81.966 64.3125 81.4983 64.0425C81.1346 63.8325 80.7435 63.6299 80.3252 63.4345C79.9068 63.2391 79.6431 63.1158 79.5342 63.0645C78.7531 62.7174 78.1244 62.4064 77.6481 62.1314C77.4229 62.0014 77.2883 61.8544 77.2444 61.6905C77.2055 61.5179 77.256 61.3104 77.396 61.0679Z" fill="black"/>
<path d="M89.3215 51.5816C89.3707 51.3981 89.4794 51.2823 89.6475 51.2342C89.8087 51.1738 89.9713 51.1656 90.1355 51.2096C90.3384 51.264 90.4742 51.3366 90.543 51.4275C90.6048 51.5062 90.6558 51.6441 90.6962 51.8412C90.7806 52.2987 90.8006 52.8424 90.756 53.4723C90.7115 54.1023 90.5973 54.7601 90.4136 55.4459C90.1832 56.3056 89.8688 56.8995 89.4703 57.2275C89.0744 57.5459 88.6607 57.699 88.2291 57.6869C87.7905 57.6626 87.2379 57.5611 86.5714 57.3825C85.8566 57.191 85.1641 56.9744 84.4938 56.7326C83.8139 56.4883 82.9572 56.1501 81.9239 55.7179C81.4784 55.5261 81.1943 55.2532 81.0717 54.8995C80.9394 54.5431 80.9212 54.1862 81.0169 53.8288C81.0972 53.5294 81.2182 53.039 81.3801 52.3577L81.7033 51.0932C81.8431 50.5716 81.9585 50.1988 82.0496 49.9748C82.1852 49.7005 82.3098 49.5061 82.4233 49.3916C82.5297 49.2648 82.6699 49.2247 82.8437 49.2713C83.0369 49.3231 83.2072 49.4412 83.3544 49.6256C83.5043 49.8003 83.5443 50.0181 83.4744 50.2789C83.3942 50.5783 83.2597 51.003 83.071 51.5529C82.8822 52.1028 82.7503 52.5178 82.6753 52.7979C82.6105 53.0394 82.5616 53.2799 82.5285 53.5195C82.4753 53.7951 82.4574 53.9974 82.4746 54.1262C82.4919 54.2551 82.5558 54.3447 82.6666 54.3951C83.6252 54.7969 84.3412 55.0612 84.8145 55.188C84.903 54.9736 84.9758 54.7602 85.0327 54.5477C85.1052 54.2772 85.1683 53.9835 85.2222 53.6667C85.276 53.3498 85.3098 53.1466 85.3234 53.0571C85.4123 52.5322 85.5059 52.0863 85.6042 51.7192C85.6612 51.5067 85.7425 51.3577 85.8483 51.2721C85.9566 51.1769 86.0784 51.1474 86.2136 51.1837C86.4261 51.2406 86.5748 51.3426 86.6596 51.4895C86.7471 51.6268 86.7823 51.8433 86.7652 52.139C86.7422 52.4952 86.6827 52.9296 86.5868 53.4422C86.4934 53.9452 86.3833 54.4333 86.2565 54.9066C86.2125 55.0708 86.142 55.2952 86.0451 55.5798C86.6265 55.7667 87.1684 55.9274 87.6706 56.062C88.3565 56.2458 88.821 55.8837 89.0643 54.9757C89.1937 54.4927 89.2673 54.0828 89.2851 53.7459C89.3029 53.4091 89.3047 53.0161 89.2904 52.5671C89.249 52.1419 89.2594 51.8134 89.3215 51.5816Z" fill="black"/>
</svg>
